<svg width="38" height="28" viewBox="0 0 38 28" fill="none" xmlns="http://www.w3.org/2000/svg">
<path d="M17.8736 15.8222C19.0216 11.7113 24.3571 7.09739 26.2923 5.53392C26.4563 5.40272 26.6968 5.56672 26.6203 5.77445C25.516 8.87952 27.8995 12.5859 28.0525 12.8155C28.0525 12.8155 28.0525 12.8265 28.0744 12.8374C29.2989 14.2478 29.9768 15.4505 30.2392 16.4673C30.4579 17.1779 30.5563 17.9323 30.5016 18.7086C30.3704 20.611 29.3536 22.251 27.8776 23.3006C27.7136 23.4099 27.5059 23.2678 27.5496 23.0819C27.5933 22.8961 27.6152 22.7649 27.6261 22.6009C27.648 22.2182 27.6043 21.8574 27.4949 21.5075C27.3637 21.0155 27.0467 20.4361 26.4453 19.7473C25.844 19.0585 26.4344 19.7363 26.4235 19.7254C26.3251 19.5723 25.352 18.0307 25.6472 16.6203C25.6909 16.4235 25.4613 16.2923 25.3083 16.4235C24.2259 17.331 22.0064 19.3646 21.4925 21.1905C21.4925 21.1905 21.4925 21.2014 21.4925 21.2123C21.3723 21.4966 21.2957 21.8137 21.2739 22.1417C21.2301 22.6883 21.3504 23.2241 21.5909 23.6833C21.8315 24.1425 21.5035 24.055 21.3176 23.9785C18.8576 22.9289 17.2176 20.4907 17.4144 17.7793C17.4581 17.1014 17.6221 16.4454 17.8845 15.855C18.1469 15.2646 17.8845 15.8441 17.8845 15.8331L17.8736 15.8222Z" fill="#004457"/>
<path d="M22.1921 21.8903C22.4326 20.5892 23.854 19.0476 24.5428 18.3588C24.6412 18.2604 24.7942 18.3479 24.7833 18.4791C24.663 19.474 25.4284 20.4908 25.5049 20.5892C25.5814 20.6876 25.5049 20.5892 25.5158 20.6002C25.9641 21.0375 26.2265 21.4202 26.3468 21.7482C26.4452 21.9778 26.4998 22.2292 26.4998 22.4916C26.4998 23.0711 26.2812 23.5959 25.8876 23.9895C25.8001 24.077 25.647 24.0114 25.647 23.8911C25.647 23.7599 25.6142 23.6396 25.5705 23.5303C25.5158 23.3663 25.3846 23.1804 25.166 22.9727C24.9473 22.765 25.166 22.9727 25.155 22.9618C25.1113 22.9071 24.827 22.5244 24.8052 22.109C24.8052 21.9887 24.6521 21.934 24.5646 22.0215C24.2038 22.3932 23.6572 23.0492 23.5478 23.6068C23.4385 24.1644 23.5478 23.6068 23.5478 23.6178C23.515 23.7162 23.5041 23.8255 23.5041 23.9348C23.5041 24.066 23.5369 24.1863 23.5806 24.2956C23.6244 24.405 23.515 24.5252 23.3948 24.4815C22.6294 24.1535 22.0937 23.4319 22.0828 22.5791C22.0828 22.3495 22.1156 22.1308 22.1812 21.9231C22.2468 21.7154 22.1812 21.9231 22.1812 21.9122L22.1921 21.8903Z" fill="#4E92A7"/>
<path d="M8.33956 12.9032L11.1385 12.4987C11.4665 12.4549 11.6414 12.0941 11.4884 11.7989L7.90222 5.16241C7.74916 4.86721 7.92409 4.51734 8.25209 4.46268L13.03 3.77388C13.2596 3.74108 13.4782 3.88321 13.5548 4.10188L16.7145 14.0293C16.802 14.3136 16.6161 14.5979 16.3318 14.6416L13.3361 15.068C13.0409 15.1117 12.855 15.4069 12.9534 15.6803L14.6372 20.8517C14.8012 21.3656 14.1342 21.7155 13.8062 21.2891L8.03342 13.6467C7.81476 13.3624 7.98969 12.936 8.35049 12.8923L8.33956 12.9032Z" fill="#F39D08"/>
</svg>
